<svg xmlns="http://www.w3.org/2000/svg" viewBox="0 0 1600 900" role="img" aria-label="Three training stages feeding a verifier loop">
  <defs>
    <linearGradient id="bg" x1="0" y1="0" x2="1" y2="1">
      <stop offset="0%" stop-color="#182c66"/>
      <stop offset="48%" stop-color="#203880"/>
      <stop offset="100%" stop-color="#2068b0"/>
    </linearGradient>
    <radialGradient id="glow" cx="32%" cy="28%" r="55%">
      <stop offset="0%" stop-color="#c8d8f0" stop-opacity=".28"/>
      <stop offset="100%" stop-color="#c8d8f0" stop-opacity="0"/>
    </radialGradient>
  </defs>
  <rect width="1600" height="900" fill="url(#bg)"/>
  <rect width="1600" height="900" fill="url(#glow)"/>
  <g fill="none" stroke="#c8d8f0" stroke-opacity=".18" stroke-width="1.5">
    <circle cx="430" cy="430" r="210"/>
    <circle cx="430" cy="430" r="140"/>
    <circle cx="430" cy="430" r="78"/>
  </g>
  <path d="M620 360 C780 260, 980 250, 1180 320" fill="none" stroke="#7eb6ff" stroke-opacity=".7" stroke-width="2.2" stroke-dasharray="10 12"/>
  <path d="M620 500 C800 620, 1020 640, 1220 540" fill="none" stroke="#c8d8f0" stroke-opacity=".45" stroke-width="1.8" stroke-dasharray="6 10"/>
  <circle cx="430" cy="430" r="14" fill="#e4edf8"/>
  <circle cx="1180" cy="320" r="10" fill="#7eb6ff"/>
  <circle cx="1220" cy="540" r="9" fill="#c8d8f0"/>
  <circle cx="980" cy="250" r="6" fill="#e4edf8"/>
  <circle cx="800" cy="600" r="6" fill="#7eb6ff"/>
  <g fill="none" stroke="#e4edf8" stroke-width="3">
    <rect x="1128" y="430" width="86" height="86" rx="18"/>
    <path d="M1148 474 l16 16 34-34" stroke="#7eb6ff" stroke-width="5" stroke-linecap="round" stroke-linejoin="round"/>
  </g>
</svg>
